<?xml version="1.0" encoding="UTF-8"?>
<svg id="Layer_1" data-name="Layer 1" xmlns="http://www.w3.org/2000/svg" viewBox="0 0 1000 1000">
  <defs>
    <style>
      .cls-1 {
        fill: #263a43;
      }
    </style>
  </defs>
  <path class="cls-1" d="M625.76,515.32c22.69-10.21,46.52-24.97,64.67-37.45-5.67-72.62-27.23-128.22-65.81-128.22-49.93,0-87.37,144.11-170.21,144.11-44.25,0-61.28-32.91-61.28-61.27,0-76.03,95.32-120.28,231.48-120.28,128.23,0,178.15,48.79,192.9,132.76,10.21,56.74,17.02,300.7,26.1,347.23,6.8,34.04,35.17,41.98,35.17,72.62,0,17.02-14.75,26.1-32.91,26.1h-142.98c-13.61,0-27.23-9.08-32.91-30.64-32.91,24.97-81.7,43.12-123.68,43.12-97.59,0-158.86-82.84-158.86-163.4,0-146.38,131.63-177.02,238.29-224.67ZM554.27,729.78c0,32.91,7.95,97.59,59.01,97.59,20.42,0,37.44-7.94,54.47-18.16,5.67-64.68,20.42-146.38,24.97-259.85v-19.29c-12.48,9.08-30.64,21.56-52.2,36.31-38.58,27.23-86.24,72.62-86.24,163.4Z"/>
  <g>
    <path class="cls-1" d="M699.91,96.61h-334.74c-85.35,0-194.32,16.45-216.31,114.87-7.09,31.72-12.58,66.01,1.7,96.53,15.02,32.1,46.26,53.44,82.05,53.03,18.78-.22,35.93-6.32,51.19-15.94,17.47-11,32.45-26.6,44.56-43.22,21.09-28.96,36.02-61.98,56.39-91.45,12.97-18.76,28.42-37.36,47.65-49.97,23.53-15.44,45.05-12.49,69.93-.91,6.19,2.88-11.79,45.62-13.3,50.31-4.82,14.94-10.38,29.63-16.34,44.15-3.45,8.4-13.33,44.24-21.2,47.66,44.89-19.55,103.42-30.32,173.14-30.32,8.79,0,17.3.24,25.59.69,47.52-76.13,81.47-133.1,81.47-149.32,0,0,0-26.1-31.78-26.1Z"/>
    <path class="cls-1" d="M359.24,470.89c-108.34,181.48-238.04,362.19-238.04,393.92,0,0,0,26.1,31.78,26.1,0,0,258.93,0,258.93,0-19.33-18.42-33.44-39.64-44.48-63.81-3.21-7.03-6.36-14.09-9.44-21.19-7.35-21.53-11.38-43.89-11.38-65.92,0-115.97,69.12-172.69,144.86-210.78.25-.43.5-.85.76-1.28-11.65,4.19-24.18,6.68-37.8,6.68-49.8,0-81.92-28.35-95.18-63.73ZM350.42,853.46h0s0,0,0,0Z"/>
  </g>
</svg>